<?xml version="1.0" standalone="no"?><!DOCTYPE svg PUBLIC "-//W3C//DTD SVG 1.1//EN" "http://www.w3.org/Graphics/SVG/1.1/DTD/svg11.dtd"><svg t="1775552078948" class="icon" viewBox="0 0 1024 1024" version="1.1" xmlns="http://www.w3.org/2000/svg" p-id="12340" xmlns:xlink="http://www.w3.org/1999/xlink" width="200" height="200"><path d="M798.784 64a89.6 89.6 0 0 1 89.536 89.536v208.896a34.56 34.56 0 0 1-69.184 0V153.6a20.608 20.608 0 0 0-20.352-20.352h-581.12a20.608 20.608 0 0 0-20.352 20.352V870.4c0 11.008 9.28 20.352 20.352 20.352h161.92a34.56 34.56 0 1 1 0 69.184H217.6A89.6 89.6 0 0 1 128 870.464V153.6A89.6 89.6 0 0 1 217.728 64h581.12z m-71.68 451.712l98.88 101.952a32 32 0 0 1-45.952 44.608l-98.88-102.016a32 32 0 0 1 45.952-44.544z m-108.544-191.36H292.352a32 32 0 0 1 0-64h326.208a32 32 0 0 1 0 64z m-43.968 156.8H292.608a32 32 0 0 1 0-64h281.984a32 32 0 0 1 0 64zM482.56 641.024H293.632a32 32 0 0 1 0-64H482.56a32 32 0 0 1 0 64z m-29.312 280.896l-3.2-146.624c-5.44-17.408 2.88-35.328 12.992-46.72l263.168-295.36a43.52 43.52 0 0 1 28.352-14.4 42.176 42.176 0 0 1 32 10.368l108.48 96.64a42.88 42.88 0 0 1 2.944 60.352L832 661.12a32 32 0 1 1-48-42.304l52.48-59.52-76.288-67.84-246.4 276.48 0.32 4.608 1.664 77.824 68.032-7.808 3.52-3.712 135.04-148.352a32 32 0 0 1 47.36 43.008l-135.04 148.288c-3.2 3.712-8.256 8.96-13.76 13.44-12.608 10.24-23.744 12.288-32.512 11.2l-135.104 15.552z" p-id="12341" fill="#2c2c2c"></path></svg>