<?xml version="1.0" standalone="no"?><!DOCTYPE svg PUBLIC "-//W3C//DTD SVG 1.1//EN" "http://www.w3.org/Graphics/SVG/1.1/DTD/svg11.dtd"><svg t="1775552104329" class="icon" viewBox="0 0 1024 1024" version="1.1" xmlns="http://www.w3.org/2000/svg" p-id="13377" xmlns:xlink="http://www.w3.org/1999/xlink" width="200" height="200"><path d="M757.546667 597.333333a95.957333 95.957333 0 0 1 95.914666 95.957334v24.533333c0 38.144-13.653333 75.093333-38.4 104.064C748.032 900.096 646.186667 938.666667 512 938.666667s-236.032-38.613333-302.848-116.906667a160 160 0 0 1-38.314667-103.850667v-24.661333a95.957333 95.957333 0 0 1 95.957334-96h490.752z m0 64H266.752a31.957333 31.957333 0 0 0-32 31.957334v24.661333c0 22.826667 8.192 44.928 23.04 62.293333 53.461333 62.634667 137.386667 94.464 254.165333 94.464 116.864 0 200.789333-31.829333 254.421334-94.464a96 96 0 0 0 23.04-62.421333v-24.533333a31.957333 31.957333 0 0 0-31.914667-32zM512 85.546667a213.333333 213.333333 0 1 1 0 426.666666 213.333333 213.333333 0 0 1 0-426.666666z m0 64a149.333333 149.333333 0 1 0 0 298.666666 149.333333 149.333333 0 0 0 0-298.666666z" fill="#2c2c2c" p-id="13378"></path></svg>